# xmcd CD database file
# Copyright (C) 1996 Ti Kan
#
# Track frame offsets:
# 	187
# 	15487
# 	28122
# 	32557
# 	49010
# 	64387
# 	86232
# 	87395
# 	103752
# 	116720
# 	135335
# 	149930
#
# Disc length: 2527 seconds
#
# Revision: 1
# Processed by: cddbd v1.4b41PL1 Copyright (c) Steve Scherf et al.
# Submitted via: DiscPlay 3.4
#
DISCID=ab09dd0c
DTITLE=Reverend Dan Smith - Just Keep Goin' On
DYEAR=1900
DGENRE=
TTITLE0=God's Radar
TTITLE1=Just Keep Goin' On
TTITLE2=Introduction
TTITLE3=I've Never Been to Seminary, But I've Been to Calvary
TTITLE4=I Walk By Faith
TTITLE5=To Another Room
TTITLE6=Dan Speaks
TTITLE7=It Takes God to Build a Home
TTITLE8=When Your Time Comes to Die
TTITLE9=Jesus Knows My Name
TTITLE10=This is the Lord's House
TTITLE11=Down Through the Years (Testimony)
EXTD=
EXTT0=
EXTT1=
EXTT2=
EXTT3=
EXTT4=
EXTT5=
EXTT6=
EXTT7=
EXTT8=
EXTT9=
EXTT10=
EXTT11=
PLAYORDER=
